<?xml version="1.0" encoding="UTF-8"?>
<!DOCTYPE svg PUBLIC "-//W3C//DTD SVG 1.0//EN" "http://www.w3.org/TR/2001/REC-SVG-20010904/DTD/svg10.dtd">
<!-- Creator: CorelDRAW X7 -->
<svg xmlns="http://www.w3.org/2000/svg" xml:space="preserve" width="10.429mm" height="6.2231mm" version="1.0" style="shape-rendering:geometricPrecision; text-rendering:geometricPrecision; image-rendering:optimizeQuality; fill-rule:evenodd; clip-rule:evenodd"
viewBox="0 0 62 37"
 xmlns:xlink="http://www.w3.org/1999/xlink">
 <defs>
  <style type="text/css">
   <![CDATA[
    .fil0 {fill:#B0C67C;fill-rule:nonzero}
   ]]>
  </style>
 </defs>
 <g id="Modo_x0020_de_x0020_aislamiento">
  <metadata id="CorelCorpID_0Corel-Layer"/>
  <g id="_723138694832">
   <path class="fil0" d="M55 14c1,-2 -2,-3 -3,-1 -2,5 -4,10 -7,15 -1,3 -4,6 -6,8 0,0 0,-1 0,-1 -4,-5 -2,-13 1,-18 4,-7 12,-10 17,-16 1,-2 4,-1 3,1 0,0 0,0 0,0 6,12 0,34 -15,35 5,-6 8,-15 10,-23z"/>
   <path class="fil0" d="M0 9c0,-1 1,-3 2,-2 7,3 15,6 22,10 5,4 8,8 7,14 -2,-1 -4,-3 -5,-4 -3,-3 -7,-5 -10,-7 -2,-1 -3,2 -2,2 4,2 7,5 10,8 1,1 2,2 3,3 -15,5 -24,-11 -27,-23 0,-1 0,-1 0,-1z"/>
  </g>
 </g>
</svg>
